<svg width="33" height="33" viewBox="0 0 33 33" fill="none" xmlns="http://www.w3.org/2000/svg">
<path d="M32.5534 16.4788C32.5534 25.4074 25.3171 32.6437 16.3886 32.6437C7.46003 32.6437 0.223755 25.4074 0.223755 16.4788C0.223755 7.55031 7.46003 0.314026 16.3886 0.314026C25.3171 0.314026 32.5534 7.55031 32.5534 16.4788ZM21.6863 23.8856C20.6697 22.7553 18.8954 21.5303 16.3886 21.5303C13.8818 21.5303 12.1074 22.7553 11.0908 23.8856C10.7183 24.3024 10.7498 24.8833 11.1666 25.3127C11.5833 25.6852 12.1642 25.6536 12.5936 25.2369C13.3324 24.416 14.589 23.5509 16.3317 23.5509C18.1882 23.5509 19.4447 24.416 20.1835 25.2369C20.5561 25.6536 21.1938 25.6852 21.6106 25.3127C22.0273 24.8833 22.0589 24.3024 21.6863 23.8856ZM11.3623 17.4891C12.4737 17.4891 13.3829 16.5862 13.3829 15.4685C13.3829 15.3738 13.3766 15.2791 13.364 15.1907L14.0459 15.418C14.5763 15.538 15.1509 15.3044 15.3278 14.7803C15.4477 14.2499 15.2141 13.6753 14.69 13.4985L8.62819 11.4778C8.09779 11.301 7.52318 11.5915 7.34638 12.1156C7.16957 12.646 7.46003 13.2206 7.98413 13.3974L9.92896 14.0415C9.56272 14.4077 9.34172 14.9129 9.34172 15.4685C9.34172 16.5862 10.2447 17.4891 11.3623 17.4891ZM22.8861 14.0289L24.793 13.3974C25.3171 13.2206 25.5507 12.646 25.4308 12.1156C25.254 11.5915 24.6793 11.301 24.1489 11.4778L18.0871 13.4985C17.563 13.6753 17.2726 14.2499 17.4494 14.7803C17.6262 15.3044 18.2008 15.538 18.7312 15.418L19.4637 15.1718C19.451 15.2665 19.4447 15.3675 19.4447 15.4685C19.4447 16.5862 20.3477 17.4891 21.4653 17.4891C22.5767 17.4891 23.4859 16.5862 23.4859 15.4685C23.4859 14.9066 23.2523 14.3951 22.8861 14.0289Z" fill="white"/>
</svg>
