<svg width="34" height="34" viewBox="0 0 34 34" fill="none" xmlns="http://www.w3.org/2000/svg">
<g clip-path="url(#clip0_3_23)">
<path d="M0.761719 17.0535C0.761719 7.89087 8.1893 0.463287 17.3519 0.463287C26.5145 0.463287 33.9421 7.89087 33.9421 17.0535C33.9421 26.2161 26.5145 33.6437 17.3519 33.6437C8.1893 33.6437 0.761719 26.2161 0.761719 17.0535Z" fill="white"/>
<path d="M12.4655 13.0283C12.4655 14.1667 11.9183 15.0891 11.2432 15.0891C10.5682 15.0891 10.0204 14.1667 10.0204 13.0283C10.0204 11.8899 10.5682 10.9681 11.2432 10.9681C11.9183 10.9681 12.4655 11.8905 12.4655 13.0283Z" fill="#EF5DA8"/>
<path d="M24.6867 13.0283C24.6867 14.1667 24.1389 15.0891 23.4638 15.0891C22.7888 15.0891 22.2416 14.1667 22.2416 13.0283C22.2416 11.8899 22.7888 10.9681 23.4638 10.9681C24.1389 10.9681 24.6867 11.8905 24.6867 13.0283Z" fill="#EF5DA8"/>
<path d="M6.2041 18.622C6.83634 24.2211 11.5848 28.5725 17.3521 28.5725C23.1195 28.5725 27.8679 24.2211 28.5001 18.622H6.2041Z" fill="#EF5DA8"/>
</g>
<defs>
<clipPath id="clip0_3_23">
<rect width="33.1804" height="33.1804" fill="white" transform="translate(0.761719 0.463287)"/>
</clipPath>
</defs>
</svg>
