<svg width="35" height="32" viewBox="0 0 35 32" fill="none" xmlns="http://www.w3.org/2000/svg">
<path d="M30.4774 17.1158C29.5368 16.6407 28.4916 16.3937 27.4655 16.3937C25.2326 16.3937 23.3513 17.5528 22.5532 19.4151C21.9166 20.8973 22.0021 23.1492 22.7527 24.5269C23.2373 25.42 24.33 26.3702 25.9642 26.3702C26.2873 26.3702 26.6198 26.3322 26.9524 26.2657C27.855 26.0756 29.1282 24.7264 29.4323 23.6528C29.6603 22.8451 28.7862 21.4674 27.8835 20.8213C27.817 20.7738 27.741 20.7738 27.684 20.7738C27.57 20.7738 26.9999 20.7928 26.7244 21.1444C26.6293 21.2584 26.5248 21.4674 26.5913 21.7715L26.6103 21.8475L26.6673 21.895C27.2469 22.4556 27.551 23.1302 27.4275 23.5768C27.3419 23.8808 27.0759 24.0898 26.6293 24.2039C26.2018 24.1278 25.5937 23.7668 25.3846 23.5103C24.9951 23.0257 24.6435 21.838 24.8051 21.1919C25.0901 20.0517 26.2493 19.2536 27.6365 19.2536C28.5961 19.2536 29.4513 19.6622 29.9834 20.3748C30.8575 21.5529 31.4846 23.7953 30.9715 24.907C30.3349 26.3037 28.5581 27.7574 26.8384 28.2895C26.4013 28.4225 25.9547 28.489 25.5272 28.489C23.8549 28.489 22.2207 27.4534 20.938 25.5816C19.3892 23.3297 19.3037 20.9639 20.6814 18.7215C21.261 17.7904 22.0591 16.9542 22.8383 16.1466C23.2088 15.7666 23.5889 15.377 23.9404 14.9779C26.3443 12.251 26.9239 9.10602 25.6792 5.61899C24.615 2.62602 22.2682 0.792241 18.8951 0.298165C18.5816 0.250657 18.268 0.231659 17.9545 0.231659C14.9805 0.231659 12.1396 2.15096 11.0469 4.88738C9.93526 7.67131 10.7999 10.7118 13.1943 12.46C14.1064 13.1251 15.2846 13.4862 16.5008 13.4862C18.0875 13.4862 19.5412 12.8591 20.4154 11.8044C22.1066 9.75213 22.0971 7.42427 20.3774 5.88503C19.7978 5.36245 18.7906 5.17242 18.04 5.17242C17.66 5.17242 17.3274 5.21993 17.0709 5.29594C16.4818 5.48597 15.1991 6.68316 15.1896 7.45277C15.1896 7.74732 15.3511 7.97535 15.6551 8.07987L15.7027 8.09887H15.7502C15.8737 8.09887 15.9497 8.02286 16.0922 7.88984C16.3868 7.60479 17.0044 7.02521 17.85 7.02521C18.1635 7.02521 18.4961 7.11072 18.8191 7.27224C19.0947 7.41477 19.1517 7.75682 19.1612 7.95635C19.1897 8.64046 18.7526 9.62861 17.983 10.0942C17.5554 10.3507 16.8998 10.5122 16.2727 10.5122C15.9117 10.5122 15.5791 10.4647 15.3226 10.3602C14.4105 10.0182 13.7834 9.28656 13.5363 8.2889C13.2323 7.04421 13.6123 5.64749 14.515 4.64034C15.4176 3.64268 16.6718 3.0916 18.0495 3.0916C19.7313 3.0916 21.3465 3.92772 22.3632 5.33394C23.6839 7.14872 23.8834 9.48608 22.8953 11.5764C21.8976 13.7047 19.9118 15.0539 17.5934 15.1965C17.4319 15.206 17.2609 15.206 17.0899 15.206C15.8547 15.206 14.572 14.9494 13.3368 14.7024C12.5197 14.5409 11.674 14.3698 10.8474 14.2748C10.5053 14.2368 10.1538 14.2178 9.81174 14.2178C5.42206 14.2178 1.64048 17.4293 1.00388 21.6765C0.386286 25.8191 3.16071 29.7052 7.32236 30.5318C7.74992 30.6173 8.19649 30.6649 8.62406 30.6649C11.4365 30.6649 13.8784 28.9166 14.838 26.2087C15.8357 23.4057 14.6765 20.4888 12.1966 19.5671C11.6455 19.3676 10.9899 19.2631 10.2868 19.2631C9.33667 19.2631 8.39602 19.4531 7.62641 19.7857C6.65726 20.2132 5.80212 21.857 5.91614 23.0922C6.05866 24.7454 6.85679 25.154 7.6169 25.5436L7.70242 25.5911C7.96846 25.7241 8.46253 25.8856 8.98511 25.8856C9.79274 25.8856 10.3248 25.5151 10.4768 24.8405L10.4863 24.8119C10.6004 23.7288 9.69773 23.2727 9.09913 22.9592C8.9091 22.8641 8.58605 22.7026 8.56705 22.6171C8.56705 22.4936 8.82359 22.4081 9.18464 22.4081C10.0303 22.4081 11.1705 22.8356 11.4745 23.4437C11.8546 24.2229 11.9496 25.5246 11.37 26.3987C10.7144 27.3773 9.84025 27.8714 8.74758 27.8714C7.93045 27.8714 7.00881 27.5769 6.08717 27.0353C3.92083 25.7431 3.17022 22.7786 4.40541 20.4223C5.6406 18.0659 7.72142 16.8972 10.3818 17.0588C13.2893 17.2298 15.4366 18.8355 16.6053 21.705C16.8713 22.3701 17.0709 23.0827 17.2609 23.7668C17.5079 24.6789 17.774 25.6196 18.2015 26.4747C19.7693 29.5817 22.5342 31.292 25.9927 31.292C26.1163 31.292 26.2493 31.292 26.3728 31.2825C29.9644 31.1589 32.5583 29.3347 33.86 26.0091C35.1712 22.6456 33.6889 18.7405 30.4774 17.1158Z" fill="white"/>
</svg>
